<svg width="25" height="24" viewBox="0 0 25 24" fill="none" xmlns="http://www.w3.org/2000/svg">
<g opacity="0.8" clip-path="url(#clip0_119_336)">
<path d="M21.6023 0H3.51607C1.91034 0 0.604004 1.31123 0.604004 2.92298V21.077C0.604004 22.6888 1.91034 24 3.51607 24H12.7861C13.176 24 13.4921 23.6827 13.4921 23.2913V14.6987C13.4921 14.3073 13.176 13.99 12.7861 13.99H10.2484V11.9729H12.7861C13.176 11.9729 13.4921 11.6556 13.4921 11.2642V8.39583C13.4921 6.84352 14.7503 5.58061 16.2969 5.58061H18.7455V7.59778H16.2969C15.8585 7.59778 15.5018 7.95586 15.5018 8.39587V11.2642C15.5018 11.6556 15.8179 11.9729 16.2078 11.9729H18.7456V13.9901H16.2078C15.8179 13.9901 15.5018 14.3074 15.5018 14.6987V23.2914C15.5018 23.6828 15.8179 24 16.2078 24H21.6023C23.208 24 24.5143 22.6888 24.5143 21.077V2.92298C24.5143 1.31123 23.208 0 21.6023 0ZM23.1023 21.077C23.1023 21.9073 22.4294 22.5827 21.6022 22.5827H16.9138H16.9137V15.4073H19.4515C19.8414 15.4073 20.1575 15.09 20.1575 14.6987V11.2642C20.1575 10.8729 19.8414 10.5556 19.4515 10.5556H16.9137V9.01509H19.4515C19.8414 9.01509 20.1575 8.6978 20.1575 8.30644V4.872C20.1575 4.48064 19.8414 4.16334 19.4515 4.16334H16.2968C13.9718 4.16334 12.0801 6.06206 12.0801 8.39587V10.5556H9.54241C9.15251 10.5556 8.8364 10.8729 8.8364 11.2642V14.6987C8.8364 15.09 9.15251 15.4073 9.54241 15.4073H12.0801V22.5827H3.51607C2.68892 22.5827 2.01597 21.9073 2.01597 21.077V2.92298C2.01597 2.09273 2.68887 1.41727 3.51607 1.41727H21.6022C22.4294 1.41727 23.1023 2.09269 23.1023 2.92298V21.077Z" fill="white"/>
</g>
<defs>
<clipPath id="clip0_119_336">
<rect width="23.9103" height="24" fill="white" transform="translate(0.604004)"/>
</clipPath>
</defs>
</svg>
