<svg width="35" height="35" viewBox="0 0 35 35" fill="none" xmlns="http://www.w3.org/2000/svg">
<g clip-path="url(#clip0_215_180)">
<path d="M34.4878 18.5369H33.6195C32.9586 18.5369 32.9586 19.5615 33.6195 19.5615H33.9754V24.6777H28.8591V19.5615H30.8189C31.4798 19.5615 31.4798 18.5369 30.8189 18.5369H28.347C28.0639 18.5369 27.8345 18.7662 27.8345 19.049V21.5482H25.7109V19.049C25.7109 18.7662 25.4815 18.5369 25.1984 18.5369H22.6291L22.6542 16.434H25.1984C25.4815 16.434 25.7109 16.2046 25.7109 15.9216V9.78073C25.7109 9.49768 25.4815 9.26857 25.1984 9.26857H19.0576C18.7748 9.26857 18.5454 9.49768 18.5454 9.78073V12.6438H16.438V9.78073C16.438 9.49768 16.2086 9.26857 15.9259 9.26857H13.3255L13.3522 7.16545H15.8952C16.1779 7.16545 16.4073 6.93634 16.4073 6.65329V0.512161C16.4073 0.229378 16.1779 0 15.8952 0H9.7543C9.47151 0 9.24213 0.229378 9.24213 0.512161V2.73197C9.24213 3.39287 10.2665 3.39287 10.2665 2.73197V1.02459H15.383V6.14086H10.2665V5.39585C10.2665 4.73495 9.24213 4.73495 9.24213 5.39585V6.65329C9.24213 6.93607 9.47151 7.16545 9.7543 7.16545H12.3274L12.3009 9.2683H9.785C9.50195 9.2683 9.27258 9.49768 9.27258 9.78073V15.9216C9.27258 16.2046 9.50195 16.4338 9.785 16.4338H12.326L12.3012 18.5369H9.785C9.50195 18.5369 9.27258 18.766 9.27258 19.049V21.5482H7.16545V19.049C7.16545 18.766 6.93607 18.5369 6.65302 18.5369H0.512161C0.229378 18.5369 0 18.766 0 19.049V25.1899C0 25.4729 0.229378 25.7023 0.512161 25.7023H3.0687L3.04386 27.8052H0.526848C0.244064 27.8052 0.0146866 28.0346 0.0146866 28.3173V34.4585C0.0146866 34.7412 0.244064 34.9706 0.526848 34.9706H1.79043C2.45132 34.9706 2.45132 33.946 1.79043 33.946H1.03928V28.8298H6.15555V33.946H4.59076C3.93013 33.946 3.93013 34.9706 4.59076 34.9706H6.66771C6.95076 34.9706 7.17987 34.7412 7.17987 34.4585V28.3173C7.17987 28.0346 6.95076 27.8052 6.66771 27.8052H4.06845L4.09328 25.7023H6.65302C6.93607 25.7023 7.16545 25.4729 7.16545 25.1899V22.5725H9.27258V25.1899C9.27258 25.4729 9.50195 25.7023 9.785 25.7023H12.3071L12.2972 27.7245C12.2969 27.752 12.2996 27.7787 12.3036 27.8052H9.785C9.50195 27.8052 9.27258 28.0346 9.27258 28.3173V34.4585C9.27258 34.7412 9.50195 34.9706 9.785 34.9706H15.9259C16.2086 34.9706 16.438 34.7412 16.438 34.4585V28.3173C16.438 28.0346 16.2086 27.8052 15.9259 27.8052H13.3151C13.3189 27.7803 13.3215 27.7552 13.3215 27.7296L13.3317 25.7023H15.9259C16.2086 25.7023 16.438 25.4729 16.438 25.1899V22.5725H18.5454V25.1899C18.5454 25.4729 18.7748 25.7023 19.0576 25.7023H25.1984C25.4815 25.7023 25.7109 25.4729 25.7109 25.1899V22.5725H27.8345V25.1899C27.8345 25.4729 28.0639 25.7023 28.347 25.7023H34.4878C34.7706 25.7023 35 25.4729 35 25.1899V19.049C35 18.7662 34.7706 18.5369 34.4878 18.5369V18.5369ZM6.14086 24.6777H1.02459V19.5615H6.14086V24.6777ZM15.4134 33.946H10.2972V28.8298H15.4134V33.946ZM19.57 10.2929H24.6863V15.4094H19.57V10.2929ZM10.2972 10.2929H15.4134V15.4094H10.2972V10.2929ZM15.4134 24.6777H10.2972V19.5615H15.4134V24.6777ZM16.438 21.5482V19.049C16.438 18.7662 16.2086 18.5369 15.9259 18.5369H13.3258L13.3506 16.434H15.9259C16.2086 16.434 16.438 16.2046 16.438 15.9216V13.6684H18.5454V15.9216C18.5454 16.2046 18.7748 16.434 19.0576 16.434H21.6296L21.6045 18.5369H19.0576C18.7748 18.5369 18.5454 18.7662 18.5454 19.049V21.5482H16.438ZM24.6863 24.6777H19.57V19.5615H24.6863V24.6777Z" fill="white"/>
</g>
<defs>
<clipPath id="clip0_215_180">
<rect width="35" height="35" fill="white"/>
</clipPath>
</defs>
</svg>
