<svg width="35" height="35" viewBox="0 0 35 35" fill="none" xmlns="http://www.w3.org/2000/svg">
<path d="M28.9502 5.74219C29.2335 5.74219 29.4629 5.51254 29.4629 5.22949V2.25586H31.8389C32.0827 2.85641 32.6723 3.28125 33.3594 3.28125C34.2641 3.28125 35 2.54532 35 1.64062C35 0.735931 34.2641 0 33.3594 0C32.5965 0 31.9532 0.523643 31.7708 1.23047H28.9502C28.6669 1.23047 28.4375 1.46011 28.4375 1.74316V4.7168H20.918V3.45215C20.918 3.1691 20.6886 2.93945 20.4053 2.93945H18.2861V0.512695C18.2861 0.229645 18.0568 0 17.7734 0H1.74316C1.46011 0 1.23047 0.229645 1.23047 0.512695V2.44465C0.523643 2.62703 0 3.2703 0 4.0332C0 4.9379 0.735931 5.67383 1.64062 5.67383C2.54532 5.67383 3.28125 4.9379 3.28125 4.0332C3.28125 3.34614 2.85641 2.75654 2.25586 2.51274V1.02539H17.2607V2.93945H15.2783C14.9953 2.93945 14.7656 3.1691 14.7656 3.45215V5.43457H7.91553C7.69978 4.78035 7.08294 4.30664 6.35742 4.30664C5.45273 4.30664 4.7168 5.04257 4.7168 5.94727C4.7168 6.85196 5.45273 7.58789 6.35742 7.58789C7.08294 7.58789 7.69978 7.11418 7.91553 6.45996H9.33105V9.80957H3.21957C3.02544 9.1201 2.39124 8.61328 1.64062 8.61328C0.735931 8.61328 0 9.34921 0 10.2539C0 11.1586 0.735931 11.8945 1.64062 11.8945C2.34077 11.8945 2.93945 11.4537 3.17471 10.835H9.84375C10.1268 10.835 10.3564 10.6053 10.3564 10.3223V6.45996H14.7656V8.5791C14.7656 8.86215 14.9953 9.0918 15.2783 9.0918H17.3633V11.0742H12.3389C12.0558 11.0742 11.8262 11.3039 11.8262 11.5869V14.285H1.92101C0.861702 14.285 0 15.1467 0 16.2057V18.252C0 18.9134 1.02539 18.9134 1.02539 18.252V16.2057C1.02539 15.712 1.427 15.3104 1.92101 15.3104H11.8262V19.6955C11.1626 19.9059 10.6804 20.5276 10.6804 21.2598C10.6804 22.1645 11.4165 22.9004 12.321 22.9004C13.2257 22.9004 13.9616 22.1645 13.9616 21.2598C13.9616 20.5407 13.4964 19.9286 12.8516 19.7078V15.3104H22.7212C23.215 15.3104 23.6168 15.712 23.6168 16.2057V26.5841H1.02539V20.9863C1.02539 20.3249 0 20.3249 0 20.9863V28.6613C0 29.7203 0.861702 30.582 1.92101 30.582H9.46297V33.9746H7.38495C6.72379 33.9746 6.72379 35 7.38495 35H17.257C17.9184 35 17.9184 33.9746 17.257 33.9746H15.179V30.582H18.0469C18.7083 30.582 18.7083 29.5566 18.0469 29.5566H1.92101C1.42727 29.5566 1.02539 29.155 1.02539 28.6613V27.6097H23.6168V28.6613C23.6168 29.155 23.215 29.5566 22.7212 29.5566H20.9863C20.3249 29.5566 20.3249 30.582 20.9863 30.582H22.7212C23.7803 30.582 24.6422 29.7206 24.6422 28.6613V16.2057C24.6422 15.1467 23.7805 14.285 22.7212 14.285H12.8516V12.0996H17.876C18.1593 12.0996 18.3887 11.87 18.3887 11.5869V9.0918H20.4053C20.6886 9.0918 20.918 8.86215 20.918 8.5791V7.62207H27.1387V14.9963C26.5021 15.2222 26.0449 15.83 26.0449 16.543C26.0449 17.4477 26.7809 18.1836 27.6855 18.1836C28.5902 18.1836 29.3262 17.4477 29.3262 16.543C29.3262 15.8046 28.8359 15.179 28.1641 14.9736V7.62207H31.377V26.458C30.7051 26.6634 30.2148 27.289 30.2148 28.0273C30.2148 28.932 30.9508 29.668 31.8555 29.668C32.7602 29.668 33.4961 28.932 33.4961 28.0273C33.4961 27.3144 33.0389 26.7066 32.4023 26.4807V7.10938C32.4023 6.82632 32.173 6.59668 31.8896 6.59668H20.918V5.74219H28.9502ZM33.3594 1.02539C33.6988 1.02539 33.9746 1.3015 33.9746 1.64062C33.9746 1.97975 33.6988 2.25586 33.3594 2.25586C33.02 2.25586 32.7441 1.97975 32.7441 1.64062C32.7441 1.3015 33.02 1.02539 33.3594 1.02539ZM1.64062 4.64844C1.3015 4.64844 1.02539 4.37233 1.02539 4.0332C1.02539 3.69408 1.3015 3.41797 1.64062 3.41797C1.97975 3.41797 2.25586 3.69408 2.25586 4.0332C2.25586 4.37233 1.97975 4.64844 1.64062 4.64844ZM1.64062 10.8691C1.3015 10.8691 1.02539 10.593 1.02539 10.2539C1.02539 9.91478 1.3015 9.63867 1.64062 9.63867C1.97975 9.63867 2.25586 9.91478 2.25586 10.2539C2.25586 10.593 1.97975 10.8691 1.64062 10.8691ZM6.35742 6.5625C6.0183 6.5625 5.74219 6.28639 5.74219 5.94727C5.74219 5.60814 6.0183 5.33203 6.35742 5.33203C6.69655 5.33203 6.97266 5.60814 6.97266 5.94727C6.97266 6.28639 6.69655 6.5625 6.35742 6.5625ZM12.321 21.875C11.9818 21.875 11.7057 21.5989 11.7057 21.2598C11.7057 20.9206 11.9818 20.6445 12.321 20.6445C12.6601 20.6445 12.9362 20.9206 12.9362 21.2598C12.9362 21.5989 12.6604 21.875 12.321 21.875ZM10.4884 33.9746V30.6367H14.1536V33.9746H10.4884ZM27.6855 17.1582C27.3462 17.1582 27.0703 16.8821 27.0703 16.543C27.0703 16.2038 27.3462 15.9277 27.6855 15.9277C28.0249 15.9277 28.3008 16.2038 28.3008 16.543C28.3008 16.8821 28.0249 17.1582 27.6855 17.1582ZM31.8555 28.6426C31.5161 28.6426 31.2402 28.3665 31.2402 28.0273C31.2402 27.6882 31.5161 27.4121 31.8555 27.4121C32.1949 27.4121 32.4707 27.6882 32.4707 28.0273C32.4707 28.3665 32.1949 28.6426 31.8555 28.6426ZM19.8926 8.06641H15.791V3.96484H19.8926V8.06641Z" fill="white"/>
</svg>
