<svg width="35" height="35" viewBox="0 0 35 35" fill="none" xmlns="http://www.w3.org/2000/svg">
<path d="M13.4206 31.5578H12.1015V30.836C12.1015 30.1746 11.0761 30.1746 11.0761 30.836V31.5578H10.0464V30.2704C10.0464 29.609 9.02103 29.609 9.02103 30.2704V31.5578H5.81375C5.57022 30.186 4.37019 29.1406 2.92957 29.1406C1.31432 29.1406 0 30.4549 0 32.0705C0 33.6857 1.31432 35 2.92957 35C4.37019 35 5.57022 33.9549 5.81375 32.5832H13.4206C14.082 32.5832 14.082 31.5578 13.4206 31.5578V31.5578ZM2.92957 33.9746C1.87962 33.9746 1.02539 33.1204 1.02539 32.0705C1.02539 31.0202 1.87962 30.166 2.92957 30.166C3.9798 30.166 4.83402 31.0202 4.83402 32.0705C4.83402 33.1204 3.9798 33.9746 2.92957 33.9746Z" fill="white"/>
<path d="M2.09 31.5574C1.43017 31.5574 1.4291 32.5828 2.09 32.5828C2.74983 32.5828 2.75089 31.5574 2.09 31.5574Z" fill="black"/>
<path d="M34.4873 31.5578H33.1681V30.836C33.1681 30.1746 32.1427 30.1746 32.1427 30.836V31.5578H31.1128V30.2704C31.1128 29.609 30.0874 29.609 30.0874 30.2704V31.5578H26.8801C26.6369 30.186 25.4368 29.1406 23.9962 29.1406C22.381 29.1406 21.0667 30.4549 21.0667 32.0705C21.0667 33.6857 22.3807 35 23.9962 35C24.6577 35 24.6577 33.9746 23.9962 33.9746C22.9463 33.9746 22.092 33.1204 22.092 32.0705C22.092 31.0202 22.9463 30.166 23.9962 30.166C25.0462 30.166 25.9007 31.0202 25.9007 32.0705C25.9007 32.4312 25.7992 32.7824 25.6077 33.0857C25.2545 33.6449 26.1215 34.1923 26.4745 33.6334C26.678 33.3116 26.8134 32.9551 26.8791 32.5832H34.4873C35.1487 32.5832 35.1487 31.5578 34.4873 31.5578V31.5578Z" fill="white"/>
<path d="M23.1566 32.5828C23.8165 32.5828 23.8175 31.5574 23.1566 31.5574C22.4968 31.5574 22.4958 32.5828 23.1566 32.5828Z" fill="black"/>
<path d="M2.92957 5.85941C4.37019 5.85941 5.57022 4.81426 5.81375 3.44254H13.4206C14.082 3.44254 14.082 2.41714 13.4206 2.41714H12.1015V1.69563C12.1015 1.0342 11.0761 1.0342 11.0761 1.69563V2.41714H10.0464V1.1298C10.0464 0.468368 9.02103 0.468368 9.02103 1.1298V2.41714H5.81375C5.57049 1.04515 4.37019 0 2.92957 0C2.26841 0 2.26841 1.02539 2.92957 1.02539C3.9798 1.02539 4.83402 1.87962 4.83402 2.92957C4.83402 3.9798 3.9798 4.83402 2.92957 4.83402C1.87962 4.83402 1.02539 3.9798 1.02539 2.92957C1.02539 2.61234 1.1047 2.29858 1.25504 2.02221C1.57066 1.44089 0.669708 0.951424 0.35408 1.53248C0.122299 1.95892 0 2.44198 0 2.92957C0 4.5451 1.31432 5.85941 2.92957 5.85941Z" fill="white"/>
<path d="M2.09 3.44263C2.74983 3.44263 2.75089 2.41724 2.09 2.41724C1.43017 2.41724 1.4291 3.44263 2.09 3.44263Z" fill="black"/>
<path d="M23.9962 5.85941C25.4368 5.85941 26.6369 4.81426 26.8801 3.44254H34.4873C35.1487 3.44254 35.1487 2.41714 34.4873 2.41714H33.1681V1.69563C33.1681 1.0342 32.1427 1.0342 32.1427 1.69563V2.41714H31.1128V1.1298C31.1128 0.468368 30.0874 0.468368 30.0874 1.1298V2.41714H26.8801C26.6369 1.04515 25.4368 0 23.9962 0C22.3807 0 21.0667 1.31432 21.0667 2.92957C21.0667 4.5451 22.3807 5.85941 23.9962 5.85941ZM23.9962 1.02539C25.0462 1.02539 25.9007 1.87962 25.9007 2.92957C25.9007 3.9798 25.0462 4.83402 23.9962 4.83402C22.9463 4.83402 22.092 3.9798 22.092 2.92957C22.092 1.87962 22.9463 1.02539 23.9962 1.02539Z" fill="white"/>
<path d="M23.1566 3.44263C23.8165 3.44263 23.8175 2.41724 23.1566 2.41724C22.4968 2.41724 22.4958 3.44263 23.1566 3.44263Z" fill="black"/>
<path d="M25.4535 17.5001C25.4535 13.1144 21.8858 9.54663 17.5001 9.54663C15.3486 9.54663 13.3486 10.3512 11.8684 11.8126C10.3712 13.2909 9.54663 15.3107 9.54663 17.5001C9.54663 21.8855 13.1144 25.4535 17.5001 25.4535C21.8858 25.4535 25.4535 21.8858 25.4535 17.5001ZM17.5001 24.4281C13.68 24.4281 10.572 21.3202 10.572 17.5001C10.572 15.5871 11.2882 13.8266 12.5889 12.5424C13.876 11.2716 15.6202 10.572 17.5001 10.572C21.3202 10.572 24.4281 13.68 24.4281 17.5001C24.4281 21.3205 21.3202 24.4281 17.5001 24.4281Z" fill="white"/>
<path d="M19.6024 17.43C20.0438 17.015 20.3202 16.4268 20.3202 15.7749C20.3202 14.8216 19.73 14.0043 18.8961 13.6676V12.8291C18.8961 12.1677 17.8707 12.1677 17.8707 12.8291V13.5025H17.0291V12.8291C17.0291 12.1677 16.0037 12.1677 16.0037 12.8291V13.5025H15.5081C15.2247 13.5025 14.9954 13.7322 14.9954 14.0152C14.9954 14.0211 14.9959 14.0267 14.9962 14.0326C14.9959 14.0382 14.9954 14.0441 14.9954 14.0497V18.7472C14.9954 19.4087 16.0208 19.4087 16.0208 18.7472V18.0471H18.0478C18.1346 18.0471 18.22 18.0417 18.3044 18.0321C18.9818 18.0439 19.5298 18.5977 19.5298 19.2781C19.5298 19.9657 18.9704 20.5249 18.2828 20.5249H15.5211C14.86 20.5249 14.86 21.5502 15.5211 21.5502H16.0037V22.1708C16.0037 22.8322 17.0291 22.8322 17.0291 22.1708V21.5502H17.8707V22.1708C17.8707 22.8322 18.8961 22.8322 18.8961 22.1708V21.4656C19.8521 21.1972 20.5552 20.3184 20.5552 19.2781C20.5552 18.5171 20.1787 17.8425 19.6024 17.43V17.43ZM19.2948 15.7749C19.2948 16.3979 18.835 16.9141 18.2374 17.0059H16.0208V14.5279H18.0478C18.7354 14.5279 19.2948 15.0873 19.2948 15.7749Z" fill="white"/>
<path d="M8.51074 15.7568H8.44238C8.15907 15.7568 7.92969 15.9862 7.92969 16.2695C7.92969 16.5528 8.15907 16.7822 8.44238 16.7822H8.51074C8.79406 16.7822 9.02344 16.5528 9.02344 16.2695C9.02344 15.9862 8.79406 15.7568 8.51074 15.7568Z" fill="white"/>
<path d="M3.48633 12.5098C3.48633 12.2264 3.25695 11.9971 2.97363 11.9971C2.69032 11.9971 2.46094 12.2264 2.46094 12.5098V12.5781C2.46094 12.8614 2.69032 13.0908 2.97363 13.0908C3.25695 13.0908 3.48633 12.8614 3.48633 12.5781V12.5098Z" fill="white"/>
<path d="M6.66504 15.7568H6.59668C6.31336 15.7568 6.08398 15.9862 6.08398 16.2695C6.08398 16.5528 6.31336 16.7822 6.59668 16.7822H6.66504C6.94836 16.7822 7.17773 16.5528 7.17773 16.2695C7.17773 15.9862 6.94836 15.7568 6.66504 15.7568Z" fill="white"/>
<path d="M3.48633 8.81836C3.48633 8.53504 3.25695 8.30566 2.97363 8.30566C2.69032 8.30566 2.46094 8.53504 2.46094 8.81836V8.88672C2.46094 9.17004 2.69032 9.39941 2.97363 9.39941C3.25695 9.39941 3.48633 9.17004 3.48633 8.88672V8.81836Z" fill="white"/>
<path d="M3.48633 6.97266C3.48633 6.68934 3.25695 6.45996 2.97363 6.45996C2.69032 6.45996 2.46094 6.68934 2.46094 6.97266V7.04102C2.46094 7.32433 2.69032 7.55371 2.97363 7.55371C3.25695 7.55371 3.48633 7.32433 3.48633 7.04102V6.97266Z" fill="white"/>
<path d="M3.48633 10.6641C3.48633 10.3807 3.25695 10.1514 2.97363 10.1514C2.69032 10.1514 2.46094 10.3807 2.46094 10.6641V10.7324C2.46094 11.0157 2.69032 11.2451 2.97363 11.2451C3.25695 11.2451 3.48633 11.0157 3.48633 10.7324V10.6641Z" fill="white"/>
<path d="M4.81934 15.7568H4.75098C4.46766 15.7568 4.23828 15.9862 4.23828 16.2695C4.23828 16.5528 4.46766 16.7822 4.75098 16.7822H4.81934C5.10265 16.7822 5.33203 16.5528 5.33203 16.2695C5.33203 15.9862 5.10265 15.7568 4.81934 15.7568Z" fill="white"/>
<path d="M3.48633 16.2012C3.48633 15.9179 3.25695 15.6885 2.97363 15.6885C2.69032 15.6885 2.46094 15.9179 2.46094 16.2012V16.2695C2.46094 16.5528 2.69032 16.7822 2.97363 16.7822C3.25695 16.7822 3.48633 16.5528 3.48633 16.2695V16.2012Z" fill="white"/>
<path d="M3.48633 14.3555C3.48633 14.0722 3.25695 13.8428 2.97363 13.8428C2.69032 13.8428 2.46094 14.0722 2.46094 14.3555V14.4238C2.46094 14.7071 2.69032 14.9365 2.97363 14.9365C3.25695 14.9365 3.48633 14.7071 3.48633 14.4238V14.3555Z" fill="white"/>
<path d="M3.48633 20.5762C3.48633 20.2929 3.25695 20.0635 2.97363 20.0635C2.69032 20.0635 2.46094 20.2929 2.46094 20.5762V20.6445C2.46094 20.9278 2.69032 21.1572 2.97363 21.1572C3.25695 21.1572 3.48633 20.9278 3.48633 20.6445V20.5762Z" fill="white"/>
<path d="M3.48633 22.4219C3.48633 22.1386 3.25695 21.9092 2.97363 21.9092C2.69032 21.9092 2.46094 22.1386 2.46094 22.4219V22.4902C2.46094 22.7736 2.69032 23.0029 2.97363 23.0029C3.25695 23.0029 3.48633 22.7736 3.48633 22.4902V22.4219Z" fill="white"/>
<path d="M3.48633 18.7305C3.48633 18.4472 3.25695 18.2178 2.97363 18.2178C2.69032 18.2178 2.46094 18.4472 2.46094 18.7305V18.7988C2.46094 19.0821 2.69032 19.3115 2.97363 19.3115C3.25695 19.3115 3.48633 19.0821 3.48633 18.7988V18.7305Z" fill="white"/>
<path d="M3.48633 24.2676C3.48633 23.9843 3.25695 23.7549 2.97363 23.7549C2.69032 23.7549 2.46094 23.9843 2.46094 24.2676V24.3359C2.46094 24.6193 2.69032 24.8486 2.97363 24.8486C3.25695 24.8486 3.48633 24.6193 3.48633 24.3359V24.2676Z" fill="white"/>
<path d="M4.81934 18.2178H4.75098C4.46766 18.2178 4.23828 18.4472 4.23828 18.7305C4.23828 19.0138 4.46766 19.2432 4.75098 19.2432H4.81934C5.10265 19.2432 5.33203 19.0138 5.33203 18.7305C5.33203 18.4472 5.10265 18.2178 4.81934 18.2178Z" fill="white"/>
<path d="M6.66504 18.2178H6.59668C6.31336 18.2178 6.08398 18.4472 6.08398 18.7305C6.08398 19.0138 6.31336 19.2432 6.59668 19.2432H6.66504C6.94836 19.2432 7.17773 19.0138 7.17773 18.7305C7.17773 18.4472 6.94836 18.2178 6.66504 18.2178Z" fill="white"/>
<path d="M3.48633 26.1133C3.48633 25.83 3.25695 25.6006 2.97363 25.6006C2.69032 25.6006 2.46094 25.83 2.46094 26.1133V26.1816C2.46094 26.465 2.69032 26.6943 2.97363 26.6943C3.25695 26.6943 3.48633 26.465 3.48633 26.1816V26.1133Z" fill="white"/>
<path d="M8.51074 18.2178H8.44238C8.15907 18.2178 7.92969 18.4472 7.92969 18.7305C7.92969 19.0138 8.15907 19.2432 8.44238 19.2432H8.51074C8.79406 19.2432 9.02344 19.0138 9.02344 18.7305C9.02344 18.4472 8.79406 18.2178 8.51074 18.2178Z" fill="white"/>
<path d="M2.97363 27.4463C2.69032 27.4463 2.46094 27.6757 2.46094 27.959V28.0273C2.46094 28.3107 2.69032 28.54 2.97363 28.54C3.25695 28.54 3.48633 28.3107 3.48633 28.0273V27.959C3.48633 27.6757 3.25695 27.4463 2.97363 27.4463Z" fill="white"/>
<path d="M32.5391 20.5762C32.5391 20.2929 32.3097 20.0635 32.0264 20.0635C31.743 20.0635 31.5137 20.2929 31.5137 20.5762V20.6445C31.5137 20.9278 31.743 21.1572 32.0264 21.1572C32.3097 21.1572 32.5391 20.9278 32.5391 20.6445V20.5762Z" fill="white"/>
<path d="M32.5391 22.4219C32.5391 22.1386 32.3097 21.9092 32.0264 21.9092C31.743 21.9092 31.5137 22.1386 31.5137 22.4219V22.4902C31.5137 22.7736 31.743 23.0029 32.0264 23.0029C32.3097 23.0029 32.5391 22.7736 32.5391 22.4902V22.4219Z" fill="white"/>
<path d="M32.0264 27.4463C31.743 27.4463 31.5137 27.6757 31.5137 27.959V28.0273C31.5137 28.3107 31.743 28.54 32.0264 28.54C32.3097 28.54 32.5391 28.3107 32.5391 28.0273V27.959C32.5391 27.6757 32.3097 27.4463 32.0264 27.4463Z" fill="white"/>
<path d="M32.5391 24.2676C32.5391 23.9843 32.3097 23.7549 32.0264 23.7549C31.743 23.7549 31.5137 23.9843 31.5137 24.2676V24.3359C31.5137 24.6193 31.743 24.8486 32.0264 24.8486C32.3097 24.8486 32.5391 24.6193 32.5391 24.3359V24.2676Z" fill="white"/>
<path d="M26.5576 18.2178H26.4893C26.2059 18.2178 25.9766 18.4472 25.9766 18.7305C25.9766 19.0138 26.2059 19.2432 26.4893 19.2432H26.5576C26.8409 19.2432 27.0703 19.0138 27.0703 18.7305C27.0703 18.4472 26.8409 18.2178 26.5576 18.2178Z" fill="black"/>
<path d="M28.4033 18.2178H28.335C28.0516 18.2178 27.8223 18.4472 27.8223 18.7305C27.8223 19.0138 28.0516 19.2432 28.335 19.2432H28.4033C28.6866 19.2432 28.916 19.0138 28.916 18.7305C28.916 18.4472 28.6866 18.2178 28.4033 18.2178Z" fill="white"/>
<path d="M32.5391 26.1133C32.5391 25.83 32.3097 25.6006 32.0264 25.6006C31.743 25.6006 31.5137 25.83 31.5137 26.1133V26.1816C31.5137 26.465 31.743 26.6943 32.0264 26.6943C32.3097 26.6943 32.5391 26.465 32.5391 26.1816V26.1133Z" fill="white"/>
<path d="M32.5391 18.7305C32.5391 18.4472 32.3097 18.2178 32.0264 18.2178C31.743 18.2178 31.5137 18.4472 31.5137 18.7305V18.7988C31.5137 19.0821 31.743 19.3115 32.0264 19.3115C32.3097 19.3115 32.5391 19.0821 32.5391 18.7988V18.7305Z" fill="white"/>
<path d="M30.249 18.2178H30.1807C29.8973 18.2178 29.668 18.4472 29.668 18.7305C29.668 19.0138 29.8973 19.2432 30.1807 19.2432H30.249C30.5323 19.2432 30.7617 19.0138 30.7617 18.7305C30.7617 18.4472 30.5323 18.2178 30.249 18.2178Z" fill="white"/>
<path d="M32.5391 6.97266C32.5391 6.68934 32.3097 6.45996 32.0264 6.45996C31.743 6.45996 31.5137 6.68934 31.5137 6.97266V7.04102C31.5137 7.32433 31.743 7.55371 32.0264 7.55371C32.3097 7.55371 32.5391 7.32433 32.5391 7.04102V6.97266Z" fill="black"/>
<path d="M32.5391 8.81836C32.5391 8.53504 32.3097 8.30566 32.0264 8.30566C31.743 8.30566 31.5137 8.53504 31.5137 8.81836V8.88672C31.5137 9.17004 31.743 9.39941 32.0264 9.39941C32.3097 9.39941 32.5391 9.17004 32.5391 8.88672V8.81836Z" fill="black"/>
<path d="M30.249 15.7568H30.1807C29.8973 15.7568 29.668 15.9862 29.668 16.2695C29.668 16.5528 29.8973 16.7822 30.1807 16.7822H30.249C30.5323 16.7822 30.7617 16.5528 30.7617 16.2695C30.7617 15.9862 30.5323 15.7568 30.249 15.7568Z" fill="black"/>
<path d="M28.4033 15.7568H28.335C28.0516 15.7568 27.8223 15.9862 27.8223 16.2695C27.8223 16.5528 28.0516 16.7822 28.335 16.7822H28.4033C28.6866 16.7822 28.916 16.5528 28.916 16.2695C28.916 15.9862 28.6866 15.7568 28.4033 15.7568Z" fill="black"/>
<path d="M26.5576 15.7568H26.4893C26.2059 15.7568 25.9766 15.9862 25.9766 16.2695C25.9766 16.5528 26.2059 16.7822 26.4893 16.7822H26.5576C26.8409 16.7822 27.0703 16.5528 27.0703 16.2695C27.0703 15.9862 26.8409 15.7568 26.5576 15.7568Z" fill="black"/>
<path d="M32.5391 16.2012C32.5391 15.9179 32.3097 15.6885 32.0264 15.6885C31.743 15.6885 31.5137 15.9179 31.5137 16.2012V16.2695C31.5137 16.5528 31.743 16.7822 32.0264 16.7822C32.3097 16.7822 32.5391 16.5528 32.5391 16.2695V16.2012Z" fill="black"/>
<path d="M32.5391 14.3555C32.5391 14.0722 32.3097 13.8428 32.0264 13.8428C31.743 13.8428 31.5137 14.0722 31.5137 14.3555V14.4238C31.5137 14.7071 31.743 14.9365 32.0264 14.9365C32.3097 14.9365 32.5391 14.7071 32.5391 14.4238V14.3555Z" fill="black"/>
<path d="M32.5391 12.5098C32.5391 12.2264 32.3097 11.9971 32.0264 11.9971C31.743 11.9971 31.5137 12.2264 31.5137 12.5098V12.5781C31.5137 12.8614 31.743 13.0908 32.0264 13.0908C32.3097 13.0908 32.5391 12.8614 32.5391 12.5781V12.5098Z" fill="black"/>
<path d="M32.5391 10.6641C32.5391 10.3807 32.3097 10.1514 32.0264 10.1514C31.743 10.1514 31.5137 10.3807 31.5137 10.6641V10.7324C31.5137 11.0157 31.743 11.2451 32.0264 11.2451C32.3097 11.2451 32.5391 11.0157 32.5391 10.7324V10.6641Z" fill="black"/>
</svg>
