<svg width="35" height="35" viewBox="0 0 35 35" fill="none" xmlns="http://www.w3.org/2000/svg">
<g clip-path="url(#clip0_215_175)">
<path d="M15.3562 3.89866C15.4668 3.89172 15.5786 3.88824 15.6892 3.88824C17.1181 3.88824 18.4684 4.45168 19.4914 5.47493C20.5147 6.49792 21.0781 7.84828 21.0781 9.27715C21.0781 9.93698 22.1013 9.93698 22.1013 9.27715C22.1013 7.57484 21.4314 5.9676 20.2151 4.75128C18.9987 3.53497 17.3912 2.86499 15.6892 2.86499C15.5578 2.86499 15.4246 2.86926 15.2932 2.87727C14.6344 2.91786 14.6977 3.93925 15.3562 3.89866Z" fill="white"/>
<path d="M32.9714 21.1369C34.2347 19.5804 34.9255 17.6405 34.9255 15.6247C34.9255 10.7938 30.9903 6.86344 26.1531 6.86344C25.6444 6.86344 25.1365 6.9075 24.6369 6.99455C23.6761 2.91115 20.0309 0 15.7777 0C13.3752 0 11.1089 0.926323 9.39621 2.60807C8.92517 3.0703 9.64214 3.80062 10.1129 3.33813C11.6334 1.84544 13.6452 1.02325 15.7777 1.02325C19.7099 1.02325 23.0566 3.82572 23.7351 7.68696C23.7853 7.97295 24.0742 8.16307 24.357 8.09605C24.9429 7.95719 25.5472 7.88696 26.1531 7.88696C30.4261 7.88696 33.9022 11.3581 33.9022 15.6249C33.9022 17.3641 33.3201 19.0392 32.2531 20.3975C30.7604 19.0373 28.7772 18.2071 26.6035 18.2071C23.1218 18.2071 20.1284 20.3372 18.8578 23.3629H7.38468C3.87699 23.3626 1.02325 20.5132 1.02325 17.0108C1.02325 15.3357 1.67053 13.7552 2.84573 12.5602C4.01985 11.3669 5.58784 10.6921 7.26105 10.6603C7.56039 10.6547 7.79564 10.3831 7.75906 10.0862C7.71847 9.7567 7.69791 9.42184 7.69791 9.09126C7.69791 7.84718 7.97375 6.65436 8.51742 5.54619C8.80821 4.95365 7.88963 4.50291 7.59911 5.09544C6.98574 6.34514 6.67465 7.68963 6.67465 9.09126C6.67465 9.28272 6.68079 9.47525 6.69308 9.66778C4.95846 9.82826 3.34988 10.5888 2.11647 11.8427C0.751686 13.2302 0 15.0655 0 17.0108C0 21.0774 3.31276 24.3859 7.38468 24.3859H8.23303V27.6743H4.20197C3.91918 27.6743 3.69034 27.9032 3.69034 28.186V31.8816C3.09086 32.103 2.66254 32.6801 2.66254 33.3551C2.66254 34.2211 3.36697 34.9255 4.23294 34.9255C5.09892 34.9255 5.80334 34.2211 5.80334 33.3551C5.80334 32.6568 5.34512 32.0638 4.71333 31.8603V28.6973H8.23303V33.3225C8.23303 33.605 8.46214 33.8342 8.74466 33.8342H12.4187C12.6217 34.4665 13.2153 34.9255 13.9141 34.9255C14.78 34.9255 15.4845 34.2211 15.4845 33.3551C15.4845 32.4891 14.78 31.7847 13.9141 31.7847C13.2396 31.7847 12.663 32.2125 12.4411 32.8109H9.25629V24.3859H14.9798V27.2084H13.2935C13.0809 26.5931 12.4959 26.1496 11.8091 26.1496C10.9434 26.1496 10.2387 26.8543 10.2387 27.72C10.2387 28.586 10.9434 29.2904 11.8091 29.2904C12.4959 29.2904 13.0809 28.8471 13.2935 28.2316H15.4911C15.7739 28.2316 16.0028 28.0025 16.0028 27.72V24.3859H18.5048C18.311 25.0927 18.2071 25.8361 18.2071 26.6035C18.2071 31.2333 21.9738 35 26.6035 35C28.7432 35 30.7812 34.1949 32.3423 32.7329C32.8237 32.2819 32.1244 31.5348 31.6426 31.986C30.272 33.2699 28.4824 33.9767 26.6035 33.9767C22.5378 33.9767 19.2303 30.6691 19.2303 26.6035C19.2303 22.5378 22.5378 19.2301 26.6035 19.2301C30.6691 19.2301 33.9767 22.5378 33.9767 26.6035C33.9767 27.7456 33.7231 28.8399 33.2224 29.8565C32.9308 30.4485 33.8488 30.9006 34.1404 30.3086C34.7108 29.1502 35 27.9037 35 26.6035C35 24.5175 34.2352 22.6069 32.9714 21.1369V21.1369ZM4.23294 33.9022C3.9312 33.9022 3.6858 33.6568 3.6858 33.3551C3.6858 33.0534 3.9312 32.808 4.23294 32.808C4.53468 32.808 4.78008 33.0536 4.78008 33.3551C4.78008 33.6568 4.53468 33.9022 4.23294 33.9022ZM13.9141 32.808C14.2158 32.808 14.4615 33.0536 14.4615 33.3551C14.4615 33.6568 14.2158 33.9022 13.9141 33.9022C13.6123 33.9022 13.3669 33.6568 13.3669 33.3551C13.3669 33.0534 13.6123 32.808 13.9141 32.808V32.808ZM11.8091 28.2674C11.5076 28.2674 11.2619 28.0217 11.2619 27.7203C11.2619 27.4185 11.5076 27.1729 11.8091 27.1729C12.1108 27.1729 12.3562 27.4185 12.3562 27.7203C12.3562 28.0217 12.1108 28.2674 11.8091 28.2674Z" fill="white"/>
<path d="M27.5394 32.0647C27.8222 32.0647 28.051 31.8356 28.051 31.5531V30.7819C29.0625 30.509 29.8092 29.5841 29.8092 28.4876C29.8092 27.678 29.4019 26.9618 28.7816 26.5327C29.2596 26.0977 29.56 25.471 29.56 24.7754C29.56 23.7711 28.9336 22.911 28.051 22.5636V21.6536C28.051 20.9937 27.0278 20.9937 27.0278 21.6536V22.3991H26.0726V21.6536C26.0726 20.9937 25.0494 20.9937 25.0494 21.6536V22.3991H24.4923C24.2098 22.3991 23.9807 22.6282 23.9807 22.9107C23.9807 22.9169 23.9815 22.9228 23.9818 22.9289C23.9815 22.935 23.9807 22.9412 23.9807 22.9473V30.1793C23.9807 30.2231 23.9869 30.2652 23.9973 30.3058C23.9959 30.3211 23.9949 30.3365 23.9949 30.3523C23.9949 30.6348 24.224 30.8639 24.5065 30.8639H25.0494V31.5531C25.0494 31.8356 25.2785 32.0647 25.561 32.0647C25.8438 32.0647 26.0726 31.8356 26.0726 31.5531V30.8639H27.0278V31.5531C27.0278 31.8356 27.2569 32.0647 27.5394 32.0647V32.0647ZM28.7859 28.4876C28.7859 29.2337 28.1789 29.8407 27.4331 29.8407H25.004V27.1517H27.184C27.2753 27.1517 27.3653 27.1458 27.4542 27.1357C28.1904 27.1471 28.7859 27.7488 28.7859 28.4876V28.4876ZM28.5368 24.7754C28.5368 25.4523 28.0366 26.0131 27.3867 26.1116H25.004V23.4224H27.184C27.9298 23.4224 28.5368 24.0293 28.5368 24.7754V24.7754Z" fill="white"/>
</g>
<defs>
<clipPath id="clip0_215_175">
<rect width="35" height="35" fill="white"/>
</clipPath>
</defs>
</svg>
