<svg width="35" height="35" viewBox="0 0 35 35" fill="none" xmlns="http://www.w3.org/2000/svg">
<g clip-path="url(#clip0_215_159)">
<path d="M17.3067 23.3371C17.4693 23.433 17.6792 23.4311 17.8394 23.3307L22.5218 20.3945C22.6713 20.3007 22.7621 20.1368 22.7621 19.9603V15.1142C22.7658 15.0894 22.7682 15.0643 22.7682 15.0386C22.7682 14.8619 22.6772 14.6976 22.5274 14.6039L17.8389 11.6743C17.6728 11.5705 17.4618 11.5705 17.2955 11.6743L12.6069 14.6039C12.459 14.6966 12.3661 14.8653 12.3661 15.0397V19.9603C12.3661 20.1368 12.4571 20.301 12.6067 20.3947L17.2952 23.331C17.2989 23.3331 17.3029 23.3347 17.3067 23.3371V23.3371ZM18.0797 21.9697V18.2523L21.7367 15.9674V19.6764L18.0797 21.9697ZM17.567 12.7136L21.2854 15.037L17.567 17.3634L13.8462 15.0386L17.567 12.7136ZM13.3915 15.9636L17.0546 18.2523V21.9705L13.3915 19.6764V15.9636Z" fill="white"/>
<path d="M0.308953 8.80201L4.99745 11.7383C5.16087 11.8405 5.37824 11.8403 5.54166 11.738L10.224 8.80174C10.3736 8.70801 10.4643 8.54406 10.4643 8.36755V3.52096C10.4681 3.4964 10.4705 3.4713 10.4705 3.44593C10.4705 3.26916 10.3794 3.10467 10.2296 3.0112L5.54112 0.0816234C4.98036 -0.268719 4.43696 0.600729 4.99772 0.951072L8.98767 3.44433L5.26929 5.77096L1.5485 3.44593L3.27912 2.36446C3.84015 2.01412 3.29674 1.1444 2.73598 1.49474L0.30922 3.0112C0.16182 3.10333 0.0683594 3.27209 0.0683594 3.44593V8.36755C0.0683594 8.54406 0.159149 8.70828 0.308953 8.80201V8.80201ZM1.09348 4.37065L1.17493 4.42165L4.75659 6.65963V10.3777L1.09348 8.0837V4.37065ZM5.78198 10.3769V6.65963L9.43895 4.37466V8.08397L5.78198 10.3769Z" fill="white"/>
<path d="M24.9044 8.8022L29.5929 11.7385C29.7561 11.841 29.974 11.8402 30.1371 11.7382L34.8195 8.80193C34.969 8.7082 35.0598 8.54425 35.0598 8.36774V3.52169C35.0636 3.49685 35.066 3.47175 35.066 3.44612C35.066 3.26934 34.9749 3.10512 34.8251 3.01139L30.1366 0.0818121C29.9705 -0.0220624 29.7595 -0.0220624 29.5932 0.0818121L24.9049 3.01139C24.7573 3.10352 24.6638 3.27228 24.6638 3.44612V8.36774C24.6638 8.54425 24.7549 8.70847 24.9044 8.8022V8.8022ZM25.6892 4.37084L29.3523 6.65982V10.3779L25.6892 8.08389V4.37084ZM30.3775 10.3771V6.65982L34.0347 4.37485V8.08415L30.3775 10.3771ZM29.865 1.12109L33.5834 3.44452L29.8648 5.77114L26.144 3.44612L29.865 1.12109Z" fill="white"/>
<path d="M10.2296 26.1964L5.54112 23.2669C5.37477 23.163 5.16381 23.163 4.99772 23.2669L0.30922 26.1964C0.16182 26.2886 0.0683594 26.4571 0.0683594 26.6312V31.5525C0.0683594 31.7293 0.159149 31.8935 0.308953 31.9872L4.99745 34.9235C5.16087 35.0258 5.37824 35.0255 5.54193 34.9232L10.2243 31.987C10.3738 31.8932 10.4646 31.729 10.4646 31.5525V26.7062C10.4681 26.6816 10.4705 26.6565 10.4705 26.6312C10.4705 26.4544 10.3794 26.2902 10.2296 26.1964ZM5.26929 24.3061L8.98767 26.6296L5.26929 28.9562L1.5485 26.6312L5.26929 24.3061ZM1.09348 27.5559L1.17493 27.6069L4.75659 29.8449V33.563L1.09348 31.2687V27.5559ZM5.78198 33.5624V29.8449L9.43895 27.5599V31.2692L5.78198 33.5624Z" fill="white"/>
<path d="M34.8251 26.1965L30.1366 23.2669C29.9702 23.163 29.7593 23.163 29.5932 23.2669L24.9047 26.1965C24.7573 26.2886 24.6638 26.4571 24.6638 26.6312V31.5525C24.6638 31.7293 24.7549 31.8935 24.9044 31.9873L29.5929 34.9235C29.928 35.1323 30.3775 34.8869 30.3775 34.4891V29.8449L34.0347 27.5599V31.2689L32.0595 32.5077C31.8194 32.658 31.747 32.9745 31.8977 33.2143C32.048 33.4543 32.3644 33.5267 32.6042 33.3763L34.8195 31.987C34.969 31.8933 35.0598 31.729 35.0598 31.5525V26.7067C35.0636 26.6819 35.066 26.6565 35.066 26.6312C35.066 26.4544 34.9749 26.2902 34.8251 26.1965V26.1965ZM29.865 24.3061L33.5834 26.6296L29.8648 28.9562L26.144 26.6312L29.865 24.3061ZM25.6892 27.5559L29.3523 29.8449V33.563L25.6892 31.2687V27.5559Z" fill="white"/>
<path d="M12.9701 6.1555H22.1298C22.7912 6.1555 22.7912 5.13037 22.1298 5.13037H12.9701C12.309 5.13037 12.309 6.1555 12.9701 6.1555Z" fill="white"/>
<path d="M22.1639 28.8496H13.0043C12.3431 28.8496 12.3431 29.875 13.0043 29.875H22.1639C22.8254 29.875 22.8254 28.8496 22.1639 28.8496Z" fill="white"/>
<path d="M29.3243 14.4355V20.547C29.3243 20.8301 29.5537 21.0595 29.8368 21.0595C30.1201 21.0595 30.3495 20.8301 30.3495 20.547V14.4355C30.3495 13.7741 29.3243 13.7741 29.3243 14.4355V14.4355Z" fill="black"/>
<path d="M4.78455 14.4582V20.5697C4.78455 20.8528 5.01419 21.0824 5.29724 21.0824C5.58056 21.0824 5.80994 20.8528 5.80994 20.5697V14.4582C5.80994 13.7968 4.78455 13.7968 4.78455 14.4582Z" fill="white"/>
<path d="M24.8308 10.6715L22.5204 12.2C22.1036 12.4756 22.3116 13.1402 22.8038 13.1402C22.9007 13.1402 22.999 13.1127 23.086 13.055L25.3963 11.5266C25.9478 11.1618 25.3822 10.3065 24.8308 10.6715Z" fill="white"/>
<path d="M12.0483 13.055C12.1353 13.1127 12.2333 13.1402 12.3305 13.1402C12.8224 13.1402 13.0307 12.4756 12.6139 12.2L10.3035 10.6715C9.75211 10.3065 9.18654 11.1618 9.73796 11.5266L12.0483 13.055Z" fill="black"/>
<path d="M10.0213 24.7606C10.1185 24.7606 10.2165 24.7331 10.3036 24.6754L12.6139 23.1472C13.1656 22.7824 12.5998 21.9268 12.0484 22.2919L9.73802 23.8204C9.32119 24.0959 9.52947 24.7606 10.0213 24.7606V24.7606Z" fill="white"/>
<path d="M22.5204 23.1469L24.8308 24.6754C24.9178 24.7331 25.0158 24.7606 25.113 24.7606C25.6049 24.7606 25.8132 24.096 25.3963 23.8204L23.086 22.2919C22.5346 21.9269 21.9687 22.7822 22.5204 23.1469Z" fill="white"/>
</g>
<defs>
<clipPath id="clip0_215_159">
<rect width="35" height="35" fill="white"/>
</clipPath>
</defs>
</svg>
