<svg width="25" height="24" viewBox="0 0 25 24" fill="none" xmlns="http://www.w3.org/2000/svg">
<g opacity="0.8" clip-path="url(#clip0_119_311)">
<path d="M17.9597 0H7.15866C3.54441 0 0.604004 2.95144 0.604004 6.57928V17.4208C0.604004 21.0486 3.54441 24 7.15866 24H17.9597C21.574 24 24.5143 21.0486 24.5143 17.4208V6.57928C24.5143 2.95144 21.574 0 17.9597 0ZM23.1023 17.4208C23.1023 20.2671 20.7954 22.5827 17.9597 22.5827H7.15866C4.32299 22.5827 2.01602 20.2671 2.01602 17.4208V6.57928C2.01602 3.73294 4.32299 1.41731 7.15866 1.41731H17.9597C20.7954 1.41731 23.1023 3.73294 23.1023 6.57928V17.4208Z" fill="white"/>
<path d="M12.5592 5.41736C8.94305 5.41736 6.0011 8.37034 6.0011 12.0001C6.0011 15.6298 8.943 18.5828 12.5592 18.5828C16.1754 18.5828 19.1174 15.6297 19.1174 12C19.1174 8.3703 16.1754 5.41736 12.5592 5.41736ZM12.5592 17.1655C9.72163 17.1655 7.41307 14.8482 7.41307 12C7.41307 9.1518 9.72163 6.83458 12.5592 6.83458C15.3968 6.83458 17.7054 9.15184 17.7054 12.0001C17.7054 14.8483 15.3968 17.1655 12.5592 17.1655Z" fill="white"/>
<path d="M19.5096 3.02359C18.4109 3.02359 17.5171 3.92082 17.5171 5.02361C17.5171 6.12639 18.4109 7.02357 19.5096 7.02357C20.6082 7.02357 21.5021 6.12634 21.5021 5.02356C21.5021 3.92078 20.6082 3.02359 19.5096 3.02359ZM19.5096 5.60621C19.1896 5.60621 18.9291 5.34484 18.9291 5.02356C18.9291 4.70228 19.1896 4.4409 19.5096 4.4409C19.8297 4.4409 20.0901 4.70232 20.0901 5.02356C20.0901 5.34479 19.8297 5.60621 19.5096 5.60621Z" fill="white"/>
</g>
<defs>
<clipPath id="clip0_119_311">
<rect width="23.9103" height="24" fill="white" transform="translate(0.604004)"/>
</clipPath>
</defs>
</svg>
