<svg width="24" height="29" viewBox="0 0 24 29" fill="none" xmlns="http://www.w3.org/2000/svg">
<g opacity="0.8">
<path d="M20.8819 4.90936H3.11808C1.39875 4.90936 0 6.59952 0 8.67704V20.3229C0 22.4004 1.39875 24.0906 3.11808 24.0906H20.8819C22.6012 24.0906 24 22.4004 24 20.323V8.67704C24 6.59952 22.6012 4.90936 20.8819 4.90936ZM22.5827 20.323C22.5827 21.4562 21.8197 22.3781 20.8819 22.3781H3.11808C2.18025 22.3781 1.41731 21.4562 1.41731 20.323V8.67704C1.41731 7.54383 2.18025 6.62195 3.11808 6.62195H20.8819C21.8197 6.62195 22.5827 7.54383 22.5827 8.67704V20.323Z" fill="white"/>
<path d="M16.5591 13.7584L9.78357 9.03167C9.56433 8.87868 9.29419 8.87868 9.07491 9.03167C8.85568 9.1846 8.72058 9.46729 8.72058 9.77321V19.2268C8.72058 19.5327 8.85563 19.8154 9.07491 19.9683C9.1845 20.0448 9.30689 20.083 9.42924 20.083C9.55158 20.083 9.67397 20.0448 9.78357 19.9683L16.5591 15.2415C16.7783 15.0886 16.9134 14.8059 16.9134 14.5C16.9134 14.1941 16.7783 13.9114 16.5591 13.7584ZM10.1379 17.7437V11.2563L14.7874 14.5L10.1379 17.7437Z" fill="white"/>
</g>
</svg>
